# AST/ASF file generated using VICON BodyLanguage
# -----------------------------------------------
:version 1.10
:name VICON
:units
  mass 1.0
  length 0.45
  angle deg
:documentation
   .ast/.asf automatically generated from VICON data using
   VICON BodyBuilder and BodyLanguage model FoxedUp or BRILLIANT.MOD
:root
   order TX TY TZ RX RY RZ
   axis XYZ
   position 0 0 0  
   orientation 0 0 0 
:bonedata
  begin
     id 1 
     name lhipjoint
     direction 0.528046 -0.759594 0.379717 
     length 2.39752 
     axis 0 0 0  XYZ
  end
  begin
     id 2 
     name lfemur
     direction 0.34202 -0.939693 0  
     length 7.31175  
     axis 0 0 20  XYZ
    dof rx ry rz
    limits (-160.0 20.0)
           (-70.0 70.0)
           (-60.0 70.0)
  end
  begin
     id 3 
     name ltibia
     direction 0.34202 -0.939693 0   
     length 7.52482   
     axis 0 0 20   XYZ
    dof rx
    limits (-10.0 170.0)
  end
  begin
     id 4 
     name lfoot
     direction 0.0675379 -0.185559 0.980309   
     length 2.00961   
     axis -90 7.62852e-016 20   XYZ
    dof rx rz
    limits (-45.0 90.0)
           (-70.0 20.0)
  end
  begin
     id 5 
     name ltoes
     direction 1.5352e-011 -4.22286e-011 1   
     length 1.01383   
     axis -90 7.62852e-016 20   XYZ
    dof rx
    limits (-90.0 20.0)
  end
  begin
     id 6 
     name rhipjoint
     direction -0.510274 -0.769251 0.384544   
     length 2.36742  
     axis 0 0 0  XYZ 
  end
  begin
     id 7 
     name rfemur
     direction -0.34202 -0.939693 0   
     length 7.45325   
     axis 0 0 -20   XYZ
    dof rx ry rz
    limits (-160.0 20.0)
           (-70.0 70.0)
           (-70.0 60.0)
  end
  begin
     id 8 
     name rtibia
     direction -0.34202 -0.939693 0   
     length 7.49587   
     axis 0 0 -20   XYZ
    dof rx
    limits (-10.0 170.0)
 end
 begin
     id 9 
     name rfoot
     direction -0.106475 -0.292536 0.950308   
     length 2.20898  
     axis -90 -7.62852e-016 -20   XYZ
    dof rx rz
    limits (-45.0 90.0)
           (-20.0 70.0)
  end
  begin
     id 10 
     name rtoes
     direction -1.53597e-011 -4.22023e-011 1   
     length 1.10065   
     axis -90 -7.62852e-016 -20   XYZ
    dof rx
    limits (-90.0 20.0)
  end
  begin
     id 11 
     name lowerback
     direction 0.0260024 0.998026 -0.0571652   
     length 2.11214   
     axis 0 0 0   XYZ
    dof rx ry rz
    limits (-20.0 45.0)
           (-30.0 30.0)
           (-30.0 30.0)
  end
  begin
     id 12 
     name upperback
     direction 0.0216202 0.999542 -0.0211766   
     length 2.11689   
     axis 0 0 0   XYZ
    dof rx ry rz
    limits (-20.0 45.0)
           (-30.0 30.0)
           (-30.0 30.0)
  end
  begin
     id 13 
     name thorax
     direction 0.00883312 0.999944 0.00589057   
     length 2.11821   
     axis 0 0 0   XYZ
    dof rx ry rz
    limits (-20.0 45.0)
           (-30.0 30.0)
           (-30.0 30.0)
  end
  begin
     id 14 
     name lowerneck
     direction -0.059386 0.994433 0.0870401   
     length 1.81176   
     axis 0 0 0   XYZ
    dof rx ry rz
    limits (-20.0 45.0)
           (-30.0 30.0)
           (-30.0 30.0)
  end
  begin
     id 15 
     name upperneck
     direction 0.0506457 0.97328 -0.223967   
     length 1.82382   
     axis 0 0 0   XYZ
    dof rx ry rz
    limits (-20.0 45.0)
           (-30.0 30.0)
           (-30.0 30.0)
  end
  begin
     id 16
     name head
     direction 0.0205902 0.996147 -0.0852487  
     length 1.84805  
     axis 0 0 0   XYZ
    dof rx ry rz
    limits (-20.0 45.0)
           (-30.0 30.0)
           (-30.0 30.0)
  end
  begin
     id 17 
     name lclavicle
     direction 0.949493 0.303881 -0.0782325  
     length 3.60584  
     axis 0 0 0   XYZ
    dof ry rz
    limits (-20.0 10.0)
           (0.0 20.0)
  end
  begin
     id 18 
     name lhumerus
     direction 1 -4.48965e-011 1.48782e-027   
     length 4.95681   
     axis 180 -30 -90   XYZ
    dof rx ry rz
    limits (-60.0 90.0)
           (-90.0 90.0)
           (-90.0 90.0)
  end
  begin
     id 19
     name lradius
     direction 1 -4.48952e-011 2.06528e-027   
     length 3.40915   
     axis 180 -30 -90   XYZ
    dof rx
    limits (-10.0 170.0)
  end
  begin
     id 20
     name lwrist
     direction 1 -4.48964e-011 1.28021e-027   
     length 1.70457   
     axis -1.61767e-015 90 90   XYZ
    dof ry
    limits (-180.0 0.0)
 end
  begin
     id 21 
     name lhand
     direction 1 -4.49094e-011 2.54887e-027   
     length 0.616403   
     axis -1.63363e-015 90 90   XYZ
    dof rx rz
    limits (-90.0 90.0)
           (-45.0 45.0)
  end
  begin
     id 22 
     name lfingers
     direction 1 -4.49002e-011 5.11407e-027   
     length 0.49696   
     axis -3.26723e-015 90 90   XYZ
    dof rx
    limits (0.0 90.0)
  end
  begin
     id 23
     name lthumb
     direction 0.707107 -6.34998e-011 0.707107   
     length 0.713539   
     axis -90 45 -2.25915e-014   XYZ
    dof rx rz
    limits (-45.0 45.0)
           (-45.0 45.0)
  end
  begin
     id 24 
     name rclavicle
     direction -0.937751 0.334612 -0.0930482   
     length 3.46287  
     axis 0 0 0   XYZ 
    dof ry rz
    limits (-10.0 20.0)
           (-20.0 0.0)
  end
  begin
     id 25 
     name rhumerus
     direction -1 -4.48962e-011 3.59972e-027  
     length 5.352   
     axis 180 30 90   XYZ
    dof rx ry rz
    limits (-90.0 60.0)
           (-90.0 90.0)
           (-90.0 90.0)
  end
  begin
     id 26 
     name rradius
     direction -1 -4.48987e-011 -3.76925e-027   
     length 3.43721   
     axis 180 30 90   XYZ
    dof rx
    limits (-10.0 170.0)
  end
  begin
     id 27 
     name rwrist
     direction -1 -4.48943e-011 1.28112e-027   
     length 1.7186   
     axis -1.61767e-015 -90 -90   XYZ
    dof ry
    limits (-180.0 0.0)
  end
  begin
     id 28
     name rhand
     direction -1 -4.49027e-011 2.55483e-027   
     length 0.72009   
     axis -1.63363e-015 -90 -90   XYZ
    dof rx rz
    limits (-90.0 90.0)
           (-45.0 45.0)
  end
  begin
     id 29
     name rfingers
     direction -1 -4.48827e-011 5.14506e-027   
     length 0.580555   
     axis -3.26723e-015 -90 -90   XYZ
    dof rx
    limits (0.0 90.0)
  end
  begin
     id 30
     name rthumb
     direction -0.707107 -6.34936e-011 0.707107   
     length 0.833564   
     axis -90 -45 2.25915e-014   XYZ
    dof rx rz
    limits (-45.0 45.0)
           (-45.0 45.0)
  end
:hierarchy
  begin
    root lhipjoint rhipjoint lowerback
    lhipjoint lfemur
    lfemur ltibia
    ltibia lfoot
    lfoot ltoes
    rhipjoint rfemur
    rfemur rtibia
    rtibia rfoot
    rfoot rtoes
    lowerback upperback
    upperback thorax
    thorax lowerneck lclavicle rclavicle
    lowerneck upperneck
    upperneck head
    lclavicle lhumerus
    lhumerus lradius
    lradius lwrist
    lwrist lhand lthumb
    lhand lfingers
    rclavicle rhumerus
    rhumerus rradius
    rradius rwrist
    rwrist rhand rthumb
    rhand rfingers
  end

#!OML:ASF H:\Terrain\Patient Classification 1\Terrain2\Thursday\justin.ASF
:FULLY-SPECIFIED
:DEGREES
812
root 11.5676 26.7614 0.150084 -332.931 -79.8043 -25.1667
lowerback 10.9337 1.14761 2.37718
upperback 3.73477 1.70079 2.47574
thorax -2.23807 0.781191 1.01722
lowerneck -8.65833 -1.14906 -9.0003
upperneck 40.6227 -3.25665 4.31345
head 16.1714 -2.77498 2.84373
rclavicle -1.58034e-014 -1.19271e-014
rhumerus -32.6598 -0.927149 -79.1618
rradius 42.7152
rwrist -15.7297
rhand -22.355 14.5305
rfingers 7.12502
rthumb 4.06599 -15.4105
lclavicle -1.58034e-014 -1.19271e-014
lhumerus -40.5601 3.98498 84.87
lradius 39.4823
lwrist 4.41783
lhand -19.5655 17.7495
lfingers 7.12502
lthumb 6.75923 47.6216
rfemur -13.8272 -8.42675 29.0144
rtibia 36.2013
rfoot -22.5069 -2.63808
rtoes 25.196
lfemur -16.6289 -1.0282 -13.4091
ltibia 38.7183
lfoot -16.0831 -11.5053
ltoes 14.8944
813
root 11.5583 26.7567 0.141638 -331.979 -79.798 -26.1136
lowerback 11.0472 1.31111 2.69361
upperback 3.64007 1.95815 2.32831
thorax -2.38248 0.910255 0.650697
lowerneck -8.49991 -1.2826 -8.58708
upperneck 40.6319 -3.57967 4.29681
head 16.1568 -2.85121 2.71183
rclavicle 1.98785e-016 -2.10712e-014
rhumerus -32.5046 -1.95776 -79.0018
rradius 42.7467
rwrist -15.6382
rhand -22.6357 14.8722
rfingers 7.12502
rthumb 3.79489 -15.0737
lclavicle 1.98785e-016 -2.10712e-014
lhumerus -40.248 3.76442 84.6681
lradius 39.4346
lwrist 4.85003
lhand -19.3938 17.6726
lfingers 7.12502
lthumb 6.925 47.5393
rfemur -13.8293 -8.3656 29.1817
rtibia 36.2626
rfoot -22.0491 -2.71908
rtoes 23.2218
lfemur -16.5688 -1.44985 -13.1755
ltibia 38.724
lfoot -16.4255 -11.3747
ltoes 15.6297
814
root 11.5402 26.7574 0.135693 -331.282 -79.7784 -26.7833
lowerback 10.9931 1.40845 2.89411
upperback 3.58551 2.10934 2.30226
thorax -2.39988 0.986211 0.49263
lowerneck -8.33455 -1.34336 -8.45719
upperneck 40.6776 -3.72635 4.27781
head 16.1508 -2.90012 2.65844
rclavicle 2.61402e-014 2.08724e-014
rhumerus -32.2772 -2.46871 -78.8225
rradius 42.8317
rwrist -15.7565
rhand -23.1065 14.7494
rfingers 7.12502
rthumb 3.34024 -15.2042
lclavicle 2.61402e-014 2.08724e-014
lhumerus -39.9078 3.91992 84.654
lradius 39.294
lwrist 5.13141
lhand -19.5938 17.5004
lfingers 7.12502
lthumb 6.732 47.3733
rfemur -13.8256 -8.37489 29.3237
rtibia 36.3278
rfoot -21.692 -3.06428
rtoes 20.0415
lfemur -16.4589 -2.20054 -12.9767
ltibia 38.7376
lfoot -17.1179 -11.0781
ltoes 15.6063
815
root 11.5202 26.759 0.133884 -331.247 -79.808 -26.8049
lowerback 10.8976 1.32933 2.81269
upperback 3.5629 1.99531 2.36118
thorax -2.37746 0.929804 0.615675
lowerneck -8.14411 -1.24141 -8.47921
upperneck 40.6286 -3.55694 4.19034
head 16.0597 -2.84846 2.64936
rclavicle 2.47487e-014 5.56597e-015
rhumerus -31.958 -2.28261 -78.7372
rradius 42.9685
rwrist -15.9228
rhand -23.4072 14.2869
rfingers 7.12502
rthumb 3.04984 -15.671
lclavicle 2.47487e-014 5.56597e-015
lhumerus -39.7135 4.67199 84.5512
lradius 39.3103
lwrist 5.36332
lhand -19.7665 17.9863
lfingers 7.12502
lthumb 6.56521 47.8645
rfemur -13.8638 -8.71542 29.3357
rtibia 36.435
rfoot -21.5784 -3.27102
rtoes 16.7895
lfemur -16.3971 -2.30183 -12.9948
ltibia 38.7521
lfoot -17.73 -10.8067
ltoes 13.5729
816
root 11.506 26.7506 0.128911 -330.67 -79.8383 -27.4995
lowerback 10.9804 1.20878 2.75586
upperback 3.59361 1.83262 2.52235
thorax -2.39936 0.846222 0.834021
lowerneck -8.1312 -1.08521 -8.71419
upperneck 40.6653 -3.26116 4.15472
head 16.0533 -2.77048 2.72161
rclavicle 2.98177e-014 2.38542e-014
rhumerus -31.484 -1.99873 -78.5566
rradius 42.9437
rwrist -15.8533
rhand -23.4764 14.152
rfingers 7.12502
rthumb 2.98301 -15.8069
lclavicle 2.98177e-014 2.38542e-014
lhumerus -39.6097 5.87093 84.4236
lradius 39.4052
lwrist 5.29625
lhand -20.3029 18.9299
lfingers 7.12502
lthumb 6.04736 48.8236
rfemur -13.802 -8.88662 29.4481
rtibia 36.6011
rfoot -21.6239 -3.34866
rtoes 15.3222
lfemur -16.2543 -1.97903 -12.9245
ltibia 38.7658
lfoot -17.9368 -10.7017
ltoes 12.4144
817
root 11.4944 26.7354 0.122849 -329.884 -79.8517 -28.4952
lowerback 11.2036 1.11913 2.73357
upperback 3.651 1.71842 2.76504
thorax -2.47033 0.784359 1.10994
lowerneck -8.20588 -0.973077 -9.16464
upperneck 40.7456 -2.97341 4.12999
head 16.0992 -2.72645 2.83715
rclavicle -1.39149e-015 -2.46493e-014
rhumerus -30.9714 -1.74961 -78.2496
rradius 42.8764
rwrist -15.8652
rhand -23.4386 14.3885
rfingers 7.12502
rthumb 3.01957 -15.5698
lclavicle -1.39149e-015 -2.46493e-014
lhumerus -39.5247 7.05445 84.4852
lradius 39.5338
lwrist 5.19592
lhand -21.5874 19.4131
lfingers 7.12502
lthumb 4.8072 49.3386
rfemur -13.6282 -9.07733 29.5713
rtibia 36.7392
rfoot -21.7617 -3.19344
rtoes 14.8961
lfemur -15.9982 -1.93394 -12.7793
ltibia 38.8492
lfoot -18.0495 -10.563
ltoes 13.2675
818
root 11.4832 26.7226 0.121995 -328.707 -79.8199 -29.8277
lowerback 11.3749 1.10579 3.01569
upperback 3.66687 1.73665 2.85396
thorax -2.54098 0.790373 1.03903
lowerneck -8.0893 -0.968918 -9.33386
upperneck 40.6265 -2.94491 4.1755
head 16.0096 -2.73066 2.89033
rclavicle 2.5842e-014 1.59028e-014
rhumerus -30.6926 -2.06061 -78.0417
rradius 42.9329
rwrist -15.8199
rhand -23.1928 14.9507
rfingers 7.12502
rthumb 3.25693 -15.0041
lclavicle 2.5842e-014 1.59028e-014
lhumerus -39.4602 7.34758 84.5213
lradius 39.8205
lwrist 5.59063
lhand -22.1242 19.9973
lfingers 7.12502
lthumb 4.28888 49.9339
rfemur -13.4843 -9.32482 29.756
rtibia 36.8225
rfoot -21.8585 -2.9594
rtoes 14.2633
lfemur -15.8369 -2.17057 -12.5515
ltibia 39.0045
lfoot -18.3748 -10.2695
ltoes 13.6176
819
root 11.4716 26.7189 0.120004 -326.345 -79.7223 -32.2728
lowerback 11.4384 1.26179 3.8212
upperback 3.64146 2.03072 2.67971
thorax -2.56434 0.936873 0.366293
lowerneck -7.81309 -1.13463 -9.05431
upperneck 40.374 -3.37125 4.44604
head 15.8467 -2.82313 2.89112
rclavicle 2.72335e-014 2.14687e-014
rhumerus -30.7437 -3.07057 -78.0857
rradius 43.1641
rwrist -15.5342
rhand -23.3713 15.064
rfingers 7.12502
rthumb 3.0845 -14.8934
lclavicle 2.72335e-014 2.14687e-014
lhumerus -39.241 6.54711 84.4501
lradius 40.0025
lwrist 6.14888
lhand -22.1849 20.8638
lfingers 7.12502
lthumb 4.23026 50.8015
rfemur -13.3742 -9.18909 30.2108
rtibia 36.8587
rfoot -21.9416 -2.98955
rtoes 14.4877
lfemur -15.7705 -2.52833 -12.0814
ltibia 39.1956
lfoot -18.6398 -9.96227
ltoes 13.9182
820
root 11.4605 26.7149 0.116532 -325.722 -79.8733 -32.9182
lowerback 11.44 1.36667 4.0849
upperback 3.67078 2.19187 2.4748
thorax -2.51235 1.01939 -0.0147689
lowerneck -7.77684 -1.19404 -8.71373
upperneck 40.2746 -3.56842 4.53917
head 15.796 -2.83785 2.83923
rclavicle 6.38099e-014 1.86858e-014
rhumerus -30.6126 -3.49052 -78.253
rradius 43.4386
rwrist -15.4883
rhand -23.7609 14.5987
rfingers 7.12502
rthumb 2.70826 -15.3638
lclavicle 6.38099e-014 1.86858e-014
lhumerus -38.874 6.17562 84.3856
lradius 39.97
lwrist 6.52616
lhand -22.6054 20.6824
lfingers 7.12502
lthumb 3.82413 50.6279
rfemur -13.335 -9.06358 30.2256
rtibia 36.9131
rfoot -22.0467 -2.94562
rtoes 15.0272
lfemur -15.7086 -2.73078 -12.0807
ltibia 39.3461
lfoot -18.7341 -9.75538
ltoes 14.829
821
root 11.4497 26.7057 0.1135 -326.427 -80.1311 -32.2326
lowerback 11.4082 1.32533 3.88223
upperback 3.76791 2.10447 2.39196
thorax -2.40101 0.978222 0.0261379
lowerneck -7.99 -1.08501 -8.51457
upperneck 40.3516 -3.37269 4.38227
head 15.8594 -2.74542 2.76438
rclavicle -2.31584e-014 1.05356e-014
rhumerus -30.1749 -3.17694 -78.4249
rradius 43.623
rwrist -15.8081
rhand -23.9169 14.2966
rfingers 7.12502
rthumb 2.55765 -15.6678
lclavicle -2.31584e-014 1.05356e-014
lhumerus -38.6264 6.32488 84.3955
lradius 40.1784
lwrist 7.04386
lhand -22.8625 20.5852
lfingers 7.12502
lthumb 3.57586 50.535
rfemur -13.3127 -8.94817 29.9719
rtibia 36.9908
rfoot -22.0296 -2.83703
rtoes 15.3018
lfemur -15.6507 -2.67866 -12.3549
ltibia 39.459
lfoot -18.793 -9.78832
ltoes 16.1179
